<?xml version="1.0" encoding="UTF-8"?>
<svg xmlns="http://www.w3.org/2000/svg" width="520" height="900" viewBox="0 0 520 900">
  <rect width="520" height="900" fill="none"/>
  <ellipse cx="260" cy="870" rx="150" ry="24" fill="#020617" opacity="0.2"/>
  <path d="M170 384 C122 462 110 650 132 842 L388 842 C410 650 398 462 350 384 Z" fill="#1e3a8a"/>
  <path d="M188 412 C218 456 302 456 332 412 L352 842 L168 842 Z" fill="#dbeafe"/>
  <path d="M164 206 C164 90 356 90 356 206 C382 250 374 344 330 384 C300 412 220 412 190 384 C146 344 138 250 164 206 Z" fill="#3f2d22"/>
  <ellipse cx="260" cy="270" rx="112" ry="128" fill="#ffd7b5"/>
  <path d="M172 222 C210 150 300 140 354 220 C330 178 232 188 172 222 Z" fill="#3f2d22"/>
  <path d="M238 268 Q260 254 282 268" fill="none" stroke="#111827" stroke-width="8" stroke-linecap="round"/>
  <path d="M316 260 Q338 248 360 260" fill="none" stroke="#111827" stroke-width="8" stroke-linecap="round"/>
  
  <path d="M272 346 Q300 330 328 346" fill="none" stroke="#9f1239" stroke-width="7" stroke-linecap="round"/>
  <text x="260" y="70" text-anchor="middle" font-family="Segoe UI, sans-serif" font-size="28" fill="#0f172a" opacity="0.5">sad</text>
</svg>